<?xml version="1.0" standalone="no"?>
<!DOCTYPE svg PUBLIC "-//W3C//DTD SVG 20010904//EN"
 "http://www.w3.org/TR/2001/REC-SVG-20010904/DTD/svg10.dtd">
<svg version="1.0" xmlns="http://www.w3.org/2000/svg"
 width="300.000000pt" height="481.000000pt" viewBox="0 0 300.000000 481.000000"
 preserveAspectRatio="xMidYMid meet">
<metadata>
Created by potrace 1.10, written by Peter Selinger 2001-2011
</metadata>
<g transform="translate(0.000000,481.000000) scale(0.100000,-0.100000)"
fill="#000000" stroke="none">
<path d="M1290 4595 l-215 -215 153 -147 c84 -80 152 -151 150 -157 -2 -6
-164 -170 -360 -365 l-356 -353 -15 48 c-155 487 -151 476 -214 518 -43 28
-123 50 -123 34 0 -6 47 -159 104 -342 58 -182 108 -343 111 -358 l7 -28 112
0 111 1 372 365 373 366 372 -366 373 -366 110 0 111 0 52 168 c29 92 81 258
116 369 l64 203 -27 -6 c-77 -17 -131 -51 -163 -103 -12 -18 -54 -138 -94
-265 -39 -127 -75 -230 -79 -229 -4 0 -168 161 -365 357 l-358 356 159 153
159 152 -212 213 -213 212 -215 -215z m391 -20 c95 -96 176 -180 178 -186 2
-6 -58 -73 -133 -148 -111 -113 -136 -143 -136 -166 0 -25 51 -80 353 -377
193 -191 363 -351 376 -354 39 -11 63 29 110 177 23 74 54 172 69 219 21 65
36 94 68 127 71 75 80 56 35 -82 -15 -50 -56 -180 -91 -290 -34 -110 -67 -206
-72 -212 -11 -14 -150 -17 -179 -5 -9 4 -175 162 -369 352 -193 190 -358 349
-366 353 -38 22 -58 4 -570 -504 l-210 -209 -87 0 c-102 0 -91 -13 -148 167
-114 358 -141 455 -132 464 24 24 102 -74 123 -152 7 -24 22 -75 35 -114 13
-38 35 -109 49 -157 29 -95 57 -138 88 -138 12 0 72 52 160 138 76 75 238 234
358 353 180 177 220 221 220 243 0 22 -28 56 -132 162 -73 74 -135 140 -137
146 -3 10 347 368 360 368 3 0 84 -79 180 -175z"/>
<path d="M1388 4523 c-99 -97 -120 -127 -108 -158 11 -28 180 -191 208 -199
29 -10 57 11 160 118 68 71 82 91 77 109 -11 36 -198 217 -225 217 -15 0 -53
-29 -112 -87z m215 -41 l97 -97 -100 -100 -100 -100 -100 100 -100 100 97 97
c54 54 100 98 103 98 3 0 49 -44 103 -98z"/>
<path d="M10 3953 c0 -4 50 -168 112 -365 l112 -358 84 0 c69 0 83 3 79 14 -3
8 -27 81 -52 163 -154 489 -152 485 -236 527 -50 25 -99 34 -99 19z m124 -86
c31 -33 47 -62 65 -123 13 -43 35 -110 47 -149 61 -186 95 -306 89 -315 -9
-14 -61 -12 -72 3 -11 14 -36 88 -127 382 -35 116 -68 218 -71 228 -13 33 27
18 69 -26z"/>
<path d="M2893 3935 c-84 -42 -85 -46 -232 -512 -28 -89 -54 -169 -57 -178 -5
-13 7 -15 79 -15 73 0 86 3 91 18 8 30 156 502 190 610 l33 102 -26 0 c-15 0
-50 -11 -78 -25z m37 -48 c0 -8 -8 -40 -19 -73 -40 -127 -82 -264 -81 -266 1
-2 -10 -34 -23 -73 -14 -38 -32 -95 -42 -125 -22 -71 -30 -80 -71 -80 -36 0
-41 11 -25 52 5 13 25 75 44 138 114 373 112 366 155 413 27 28 62 36 62 14z"/>
<path d="M1254 3473 l-241 -243 491 0 491 0 -245 245 c-135 135 -247 244 -250
243 -3 -1 -113 -111 -246 -245z m441 2 c102 -101 185 -189 185 -195 0 -7 -127
-10 -380 -10 -209 0 -380 3 -380 7 0 10 372 383 382 383 4 0 91 -83 193 -185z"/>
<path d="M200 3020 l0 -120 1300 0 1300 0 0 110 0 110 -392 0 c-467 0 -1469 8
-1900 15 l-308 5 0 -120z m100 66 c0 -8 -4 -18 -10 -21 -5 -3 -10 -33 -10 -66
0 -32 -2 -59 -4 -59 -29 0 -36 16 -36 80 0 45 4 70 13 73 24 10 47 7 47 -7z
m194 5 c3 -4 -3 -16 -13 -25 -16 -15 -19 -15 -35 3 -13 15 -14 20 -4 24 21 9
46 8 52 -2z m186 -11 c0 -4 -6 -13 -14 -19 -10 -9 -16 -8 -26 3 -6 9 -9 19 -6
25 7 10 46 3 46 -9z m188 -2 c-3 -7 -13 -13 -23 -13 -10 0 -20 6 -22 13 -3 7
5 12 22 12 17 0 25 -5 23 -12z m192 3 c0 -12 -29 -23 -41 -15 -18 10 -9 24 16
24 14 0 25 -4 25 -9z m188 -3 c-3 -7 -13 -13 -23 -13 -10 0 -20 6 -22 13 -3 7
5 12 22 12 17 0 25 -5 23 -12z m192 7 c0 -3 -5 -14 -12 -24 -11 -18 -13 -18
-25 -3 -18 25 -16 32 12 32 14 0 25 -2 25 -5z m200 -3 c0 -4 -7 -15 -15 -25
-13 -18 -14 -18 -24 2 -15 26 -15 26 14 29 14 1 25 -2 25 -6z m1119 -73 c-2
-85 -24 -84 -25 1 0 52 3 67 13 63 9 -4 13 -24 12 -64z m-2339 -5 l0 -55 -52
3 -51 3 -2 53 -2 52 54 0 53 0 0 -56z m200 1 l0 -55 -55 0 -55 0 0 55 0 55 55
0 55 0 0 -55z m184 3 l-2 -53 -51 -3 -51 -3 0 55 0 56 53 0 52 0 -1 -52z m186
-3 l0 -55 -55 0 -55 0 0 55 0 55 55 0 55 0 0 -55z m190 0 l0 -55 -55 0 -55 0
0 55 0 55 55 0 55 0 0 -55z m190 -1 l0 -55 -51 3 -51 3 -2 53 -1 52 52 0 53 0
0 -56z m200 1 l0 -55 -55 0 -55 0 0 55 0 55 55 0 55 0 0 -55z m200 0 l0 -55
-55 0 -55 0 0 55 0 55 55 0 55 0 0 -55z m190 0 l0 -55 -55 0 -55 0 0 55 0 55
55 0 55 0 0 -55z m190 -1 l0 -55 -51 3 -51 3 -2 53 -1 52 52 0 53 0 0 -56z
m180 1 l0 -55 -55 0 -55 0 0 55 0 55 55 0 55 0 0 -55z m180 0 l0 -55 -55 0
-55 0 0 55 0 55 55 0 55 0 0 -55z m190 0 l0 -55 -55 0 -55 0 0 55 0 55 55 0
55 0 0 -55z"/>
<path d="M2134 2720 c-50 -20 -54 -39 -54 -266 l0 -211 115 -78 c64 -42 118
-75 121 -73 8 9 -50 61 -130 117 l-77 54 3 203 c2 128 7 207 14 214 14 14 105
24 139 16 l28 -7 -24 -25 c-23 -25 -24 -31 -24 -186 0 -152 1 -161 22 -178 20
-15 20 -19 7 -38 -13 -18 -12 -23 11 -50 14 -17 47 -44 73 -61 45 -30 72 -49
109 -77 17 -12 16 -13 -7 -15 -67 -3 -155 2 -159 10 -4 5 -54 10 -113 13
l-108 4 0 -134 0 -134 29 -29 c33 -33 75 -38 120 -14 38 19 41 30 41 151 l0
104 135 0 135 0 0 -106 c0 -103 1 -106 29 -135 20 -20 40 -29 61 -29 37 0 85
23 94 45 3 9 6 76 6 149 l0 132 -105 -4 -106 -4 -125 82 c-68 46 -123 84 -122
85 2 1 69 19 150 40 81 21 161 46 178 56 28 18 29 21 32 106 l3 87 33 2 32 2
0 -64 0 -64 59 0 c52 0 62 3 80 26 31 39 29 103 -5 135 -23 22 -34 24 -111 24
l-86 0 -14 47 c-24 85 -35 88 -267 87 -110 0 -211 -4 -222 -9z m419 -29 c15
-6 31 -25 41 -53 10 -24 25 -51 34 -61 11 -12 13 -21 6 -25 -22 -14 -34 -51
-33 -99 2 -78 -4 -89 -69 -107 -79 -22 -84 -21 -72 10 6 14 10 80 10 147 0
104 -3 126 -20 152 -14 22 -16 31 -7 37 17 11 81 10 110 -1z m-131 -38 c16
-14 18 -33 18 -157 l0 -142 -72 -19 c-40 -11 -79 -21 -85 -23 -10 -3 -13 33
-13 154 0 148 1 159 22 181 27 29 101 32 130 6z m365 -92 c21 -2 43 -32 43
-60 0 -36 -30 -63 -67 -59 -25 3 -28 7 -31 43 -2 22 -8 45 -14 52 -15 18 -3
29 29 27 15 -1 33 -3 40 -3z m-549 -507 c17 -5 21 -11 16 -23 -4 -9 -8 -59 -9
-111 -3 -83 -6 -96 -25 -112 -30 -24 -65 -23 -90 4 -17 19 -20 35 -20 124 0
88 3 105 18 113 19 12 75 14 110 5z m460 -118 c3 -122 -7 -146 -60 -146 -51 0
-68 29 -68 120 0 92 0 88 -11 118 -9 23 -8 23 64 20 l72 -3 3 -109z"/>
<path d="M165 2695 l-25 -24 0 -428 c0 -473 -1 -464 63 -481 40 -11 87 1 110
29 15 19 17 48 17 265 l0 244 103 0 102 0 0 -245 0 -245 26 -26 c45 -45 133
-32 158 23 16 35 15 836 -1 866 -18 35 -40 46 -86 47 -35 0 -49 -6 -73 -30
l-30 -29 3 -151 3 -150 -102 0 -103 0 0 155 c0 152 -1 156 -25 180 -34 35
-106 35 -140 0z m119 -21 c9 -8 16 -23 16 -32 1 -9 2 -74 3 -143 2 -104 5
-130 19 -146 16 -18 16 -21 1 -43 -14 -19 -16 -57 -17 -251 -1 -208 -3 -229
-20 -248 -23 -25 -72 -28 -98 -4 -17 15 -18 42 -18 434 l0 418 22 15 c29 20
72 20 92 0z m392 2 c18 -14 19 -32 22 -423 2 -455 2 -456 -58 -461 -19 -2 -44
4 -55 12 -19 13 -20 29 -25 254 -4 177 -8 243 -18 255 -11 13 -11 20 3 40 12
19 16 57 18 167 3 126 5 144 22 156 24 18 66 18 91 0z"/>
<path d="M1023 2550 c-63 -13 -122 -47 -143 -83 -18 -29 -20 -51 -20 -262 0
-271 2 -279 97 -322 46 -21 69 -25 137 -25 173 3 269 3 339 0 94 -4 159 16
208 62 l39 37 0 135 0 134 50 0 c50 0 50 0 50 -33 0 -33 1 -33 46 -33 79 0
113 30 114 98 0 64 -32 92 -105 92 l-55 0 0 -35 0 -35 -50 0 -50 0 0 87 0 86
-39 37 c-47 45 -112 65 -201 62 -145 -4 -258 -4 -315 1 -33 3 -79 2 -102 -3z
m125 -29 c16 -2 21 -5 12 -8 -54 -19 -98 -47 -113 -72 -15 -25 -17 -59 -17
-249 0 -205 1 -221 20 -245 42 -53 137 -59 159 -11 18 40 15 511 -3 547 l-15
27 80 0 c43 0 79 -2 79 -5 0 -3 -6 -16 -14 -28 -12 -18 -14 -72 -13 -278 2
-233 4 -259 20 -277 18 -20 18 -20 -90 -27 -172 -10 -217 -8 -272 10 -36 12
-56 25 -71 49 -18 31 -20 49 -20 249 0 146 4 225 12 242 13 29 67 61 125 73
36 8 59 9 121 3z m405 -14 c22 -6 52 -23 68 -38 26 -25 29 -33 29 -94 0 -44 6
-76 16 -95 16 -26 16 -29 0 -51 -13 -18 -16 -48 -16 -139 0 -126 -7 -148 -58
-174 -49 -24 -130 -39 -180 -31 l-47 7 50 13 c30 8 58 23 72 40 22 26 23 31
23 252 0 210 -1 227 -20 253 -22 31 -70 59 -104 62 -12 0 -1 4 24 8 48 8 83 5
143 -13z m-363 -302 l0 -275 -29 0 c-36 0 -83 17 -93 33 -12 19 -10 445 3 468
12 23 62 48 97 49 l22 0 0 -275z m270 239 c25 -24 25 -26 28 -227 4 -236 -3
-269 -58 -281 -18 -3 -43 -6 -56 -6 l-24 0 0 276 0 277 43 -7 c25 -4 52 -17
67 -32z m434 -146 c23 -33 20 -74 -6 -92 -35 -25 -64 -20 -86 16 -19 29 -19
33 -3 64 13 27 22 34 48 34 22 0 37 -7 47 -22z"/>
<path d="M917 1653 c-4 -3 -7 -75 -7 -159 0 -174 -3 -169 91 -162 l44 3 0 60
0 60 -37 3 c-35 3 -38 6 -38 33 0 29 0 29 60 29 l59 0 3 -92 c3 -92 3 -93 28
-93 25 0 25 0 25 100 l0 100 -89 3 -89 3 6 48 c4 30 1 53 -6 60 -12 12 -40 15
-50 4z m91 -256 c3 -42 1 -47 -17 -47 -18 0 -21 6 -21 43 0 24 3 47 7 51 16
15 28 -3 31 -47z"/>
<path d="M1286 1645 c-3 -9 -6 -34 -6 -56 l0 -39 -45 0 c-45 0 -45 0 -41 -32
4 -44 41 -52 56 -14 5 14 17 26 26 26 13 0 15 -13 14 -82 -1 -46 -2 -89 -1
-95 1 -8 17 -13 46 -13 34 0 45 -4 45 -16 0 -20 39 -15 53 8 8 12 7 21 -2 32
-15 18 -51 22 -51 6 0 -5 -7 -10 -15 -10 -12 0 -15 16 -15 85 0 86 11 109 30
60 7 -18 17 -25 35 -25 22 0 25 4 25 35 0 35 0 35 -44 35 l-45 0 -3 53 c-3 48
-5 52 -29 55 -17 2 -29 -3 -33 -13z"/>
<path d="M1507 1632 c-30 -31 -36 -85 -14 -116 20 -27 108 -34 142 -12 22 14
25 24 25 75 0 63 6 77 27 60 8 -7 13 -34 13 -74 0 -69 6 -75 77 -75 l32 0 3
-72 3 -73 38 -3 c20 -2 37 -8 37 -13 0 -6 12 -9 28 -7 21 2 27 8 27 28 0 20
-6 26 -29 28 -18 2 -26 0 -21 -7 3 -6 -1 -11 -9 -11 -14 0 -16 19 -16 134 0
74 -3 141 -6 150 -5 14 -30 16 -168 16 l-162 0 -27 -28z m91 -42 c2 -61 -8
-86 -32 -77 -12 5 -16 20 -16 65 0 63 5 74 30 70 11 -2 16 -18 18 -58z m207
-10 c0 -58 -2 -65 -20 -65 -17 0 -20 8 -23 54 -4 65 2 84 25 79 15 -3 18 -14
18 -68z"/>
<path d="M2007 1654 c-4 -4 -7 -39 -7 -78 0 -71 0 -71 38 -96 l37 -25 -40 -3
-40 -3 3 -55 c4 -53 5 -55 30 -52 24 3 27 8 30 46 l3 42 44 0 44 0 3 -42 3
-43 48 -3 c34 -2 47 -7 47 -18 0 -10 8 -14 23 -12 17 2 22 10 22 33 0 23 -5
31 -22 33 -13 2 -23 -1 -23 -7 0 -6 -9 -11 -20 -11 -18 0 -19 5 -13 45 l6 45
-39 0 c-43 0 -141 55 -113 64 7 2 36 10 62 16 l48 13 -3 56 -3 56 -80 3 c-45
1 -84 0 -88 -4z m111 -65 c3 -41 0 -47 -20 -53 -37 -9 -38 -8 -38 42 0 55 5
64 35 60 16 -2 21 -12 23 -49z"/>
<path d="M2372 1648 c-7 -7 -12 -40 -12 -81 0 -65 2 -72 35 -108 19 -22 35
-43 35 -48 0 -4 -18 -16 -40 -26 -34 -16 -41 -23 -38 -44 2 -20 9 -26 28 -26
20 0 26 6 28 28 3 22 13 33 47 49 l44 21 -35 42 c-38 47 -41 55 -18 55 9 0 34
5 56 12 l39 11 -3 61 -3 61 -75 3 c-50 2 -79 -1 -88 -10z m106 -62 c3 -51 -6
-66 -40 -66 -14 0 -18 9 -18 41 0 89 53 112 58 25z"/>
<path d="M478 1595 c-13 -17 -18 -43 -18 -94 0 -82 9 -91 85 -91 78 0 85 9 85
99 0 58 4 82 15 91 12 10 18 10 30 0 11 -9 15 -33 15 -91 0 -76 1 -80 26 -89
37 -14 106 -12 129 4 18 12 20 24 19 94 -1 45 -5 86 -9 91 -4 7 -69 11 -183
11 -175 -1 -177 -1 -194 -25z m92 -80 c0 -48 -4 -76 -13 -84 -24 -20 -37 9
-37 84 0 75 13 104 37 84 9 -8 13 -36 13 -84z m230 0 c0 -64 -3 -84 -15 -89
-23 -8 -35 26 -35 96 0 65 11 91 36 81 10 -4 14 -27 14 -88z"/>
<path d="M200 1171 c0 -39 8 -47 535 -562 294 -288 554 -535 576 -550 60 -39
117 -52 206 -47 58 4 91 12 130 31 38 20 192 164 602 564 507 495 551 540 551
570 l0 33 -1300 0 -1300 0 0 -39z m2550 -12 c0 -7 -46 -56 -102 -111 -57 -55
-260 -253 -453 -442 -527 -515 -527 -515 -592 -543 -69 -29 -101 -32 -166 -16
-89 23 -124 48 -296 217 -185 182 -215 211 -594 580 -174 170 -297 297 -297
308 0 17 50 18 1250 18 923 0 1250 -3 1250 -11z"/>
<path d="M575 1098 c-11 -6 -25 -19 -32 -27 -15 -19 -17 -110 -3 -146 5 -14
119 -133 252 -263 558 -546 536 -527 643 -551 69 -16 122 -8 201 30 50 23 106
73 335 297 151 148 316 309 367 357 118 113 132 135 132 212 0 108 97 98 -959
100 -678 2 -921 0 -936 -9z m1855 -96 l-5 -68 -373 -365 c-422 -413 -437 -424
-556 -423 -123 0 -125 2 -546 411 l-378 368 -1 73 -1 72 933 0 932 0 -5 -68z"/>
<path d="M1049 632 c178 -174 339 -328 358 -342 45 -32 124 -34 172 -4 17 11
112 99 209 195 97 96 245 240 328 322 l151 147 -771 0 -771 0 324 -318z m1102
260 c-5 -9 -42 -48 -83 -86 -40 -38 -168 -162 -284 -277 -167 -163 -220 -210
-252 -219 -56 -17 -94 -2 -172 71 -109 102 -515 503 -523 517 -7 9 128 12 658
12 632 0 665 -1 656 -18z"/>
</g>
</svg>
